<?xml version="1.0" standalone="no"?>
<!DOCTYPE svg PUBLIC "-//W3C//DTD SVG 20010904//EN"
 "http://www.w3.org/TR/2001/REC-SVG-20010904/DTD/svg10.dtd">
<svg version="1.0" xmlns="http://www.w3.org/2000/svg"
 width="256.000000pt" height="256.000000pt" viewBox="0 0 256.000000 256.000000"
 preserveAspectRatio="xMidYMid meet">
<metadata>
Created by potrace 1.16, written by Peter Selinger 2001-2019
</metadata>
<g transform="translate(0.000000,256.000000) scale(0.100000,-0.100000)"
fill="#000000" stroke="none">
<path d="M1117 2230 c-244 -44 -466 -180 -609 -374 -226 -304 -256 -713 -78
-1043 123 -228 325 -392 577 -470 82 -25 100 -27 273 -27 173 0 191 2 273 27
151 47 274 117 385 222 223 208 330 494 301 802 -38 401 -304 722 -695 839
-74 22 -113 27 -234 30 -80 1 -167 -1 -193 -6z m433 -89 c310 -104 527 -335
612 -652 31 -117 31 -318 -1 -434 -25 -94 -83 -220 -140 -304 -180 -264 -524
-421 -838 -381 -127 16 -207 41 -323 101 -174 91 -295 215 -385 394 -78 154
-98 237 -99 405 0 111 4 150 22 219 88 326 321 567 637 659 103 30 107 31 270
28 138 -3 158 -6 245 -35z"/>
<path d="M890 1861 c0 -14 10 -20 38 -25 22 -3 48 -16 63 -32 l24 -26 0 -505
0 -505 -33 -29 c-20 -18 -43 -29 -62 -29 -23 0 -30 -4 -30 -20 0 -20 7 -20
383 -20 l384 0 72 157 c54 118 68 158 59 165 -20 12 -20 12 -67 -58 -81 -118
-146 -182 -203 -199 -70 -20 -278 -21 -317 0 -51 26 -52 33 -49 557 l3 486 24
26 c15 16 41 29 63 32 28 5 38 11 38 25 0 18 -11 19 -195 19 -184 0 -195 -1
-195 -19z"/>
</g>
</svg>
